<?xml version="1.0" encoding="UTF-8" standalone="no"?>
<svg
   xmlns:dc="http://purl.org/dc/elements/1.1/"
   xmlns:cc="http://creativecommons.org/ns#"
   xmlns:rdf="http://www.w3.org/1999/02/22-rdf-syntax-ns#"
   xmlns:svg="http://www.w3.org/2000/svg"
   xmlns="http://www.w3.org/2000/svg"
   viewBox="0 0 125.52439 106.29921"
   height="106.29921"
   width="125.52439"
   xml:space="preserve"
   version="1.1"
   id="svg2"><metadata
     id="metadata8"><rdf:RDF><cc:Work
         rdf:about=""><dc:format>image/svg+xml</dc:format><dc:type
           rdf:resource="http://purl.org/dc/dcmitype/StillImage" /><dc:title></dc:title></cc:Work></rdf:RDF></metadata><defs
     id="defs6" /><g
     transform="matrix(1.25,0,0,-1.25,0,106.29921)"
     id="g10"><g
       id="g12"><path
         id="path4172"
         transform="matrix(0.8,0,0,-0.8,0,85.039368)"
         d="M 45.742188 94.097656 C 42.758437 94.082656 40.039297 95.966484 39.498047 98.896484 C 38.881797 102.24648 40.338203 104.92242 43.345703 105.98242 C 44.458203 106.37242 47.143359 106.31766 48.255859 105.87891 C 52.939609 104.02266 53.251875 96.889141 48.734375 94.775391 C 47.758125 94.316641 46.733437 94.102656 45.742188 94.097656 z M 45.533203 96.142578 C 47.041953 96.127578 48.579219 96.811875 49.292969 98.203125 C 50.351719 100.28812 49.580469 102.95961 47.636719 103.91211 C 43.989219 105.69336 40.307344 102.06 41.933594 98.28125 C 42.538594 96.875 44.024453 96.161328 45.533203 96.142578 z "
         style="fill:#000000;fill-opacity:1;fill-rule:nonzero;stroke:none" /><path
         id="path4168"
         d="M 57.926,9.645 56.066,9.6493 53.402,2.465 51.168,9.6156476 49.559,9.641 46.773,2.594 l -2.156,7 -1.769,-0.012 3.136,-9.55 1.660838,0 L 50.254,7.0993524 52.586,0.05235237 54.219,0.024 Z"
         style="fill:#000000;fill-opacity:1;fill-rule:nonzero;stroke:none" /><path
         id="path4166"
         transform="matrix(0.8,0,0,-0.8,0,85.039368)"
         d="M 14.261719 94.253906 L 14.261719 106.25977 L 16.279297 106.25977 L 16.351562 101.60156 L 18.271484 101.52344 L 21.699219 106.25977 L 24.380859 106.26172 L 20.878906 101.26953 L 21.449219 100.98242 C 22.855469 100.27867 23.363281 99.405156 23.363281 97.691406 C 23.368281 94.853906 22.280781 94.253906 17.144531 94.253906 L 14.261719 94.253906 z M 16.283203 96.273438 L 18.007812 96.273438 C 19.531562 96.273438 19.805391 96.312422 20.337891 96.576172 C 21.557891 97.192422 21.518672 98.691641 20.263672 99.306641 C 19.838672 99.516641 19.359453 99.58125 18.001953 99.625 L 16.283203 99.683594 L 16.283203 96.273438 z "
         style="fill:#000000;fill-opacity:1;fill-rule:nonzero;stroke:none" /><path
         id="path4164"
         d="m 59.863,9.637 0,-9.605 1.727,0 0,4.21 5.07,0 0,-4.21 1.731,0 0,9.605 -1.731,0 0,-3.883 -5.07,0 0,3.883 z"
         style="fill:#000000;fill-opacity:1;fill-rule:nonzero;stroke:none" /><path
         id="path4162"
         d="m 71.52,9.637 0,-9.605 6.687,0 0,1.621 -4.961,0 0,2.589 4.641,0 0,1.512 -4.641,0 0,2.266 4.961,0 0,1.617 z"
         style="fill:#000000;fill-opacity:1;fill-rule:nonzero;stroke:none" /><path
         id="path4158"
         transform="matrix(0.8,0,0,-0.8,0,85.039368)"
         d="M 114.48828 94.253906 L 114.48828 106.29883 L 117.35352 106.21484 C 122.97852 106.04859 124.9418 104.77102 125.43555 100.94727 C 126.04055 96.251016 123.56969 94.267813 117.08594 94.257812 L 114.48828 94.253906 z M 116.64453 96.273438 L 118.39453 96.273438 C 121.76828 96.273438 123.2957 97.469844 123.31445 100.12109 C 123.32945 102.29484 122.26164 103.64328 120.18164 104.08203 C 118.94447 104.26053 117.89812 104.23242 116.64453 104.23242 L 116.64453 96.273438 z "
         style="fill:#000000;fill-opacity:1;fill-rule:nonzero;stroke:none" /><path
         id="path4156"
         transform="matrix(0.8,0,0,-0.8,0,85.039368)"
         d="M 4.6484375 94.322266 L 0.01953125 106.23633 L 2.0253906 106.23438 L 3.3945312 103.02344 L 8.1582031 103.02344 L 9.5214844 106.27539 L 11.693359 106.24609 L 7.0410156 94.322266 L 4.6484375 94.322266 z M 5.7714844 96.947266 C 5.8452344 96.947266 7.3828125 100.85867 7.3828125 101.04492 L 4.1796875 101.04492 C 4.1796875 101.04492 5.7127344 96.947266 5.7714844 96.947266 z "
         style="fill:#000000;fill-opacity:1;fill-rule:nonzero;stroke:none" /><path
         id="path16"
         style="fill:#004875;fill-opacity:1;fill-rule:nonzero;stroke:none"
         d="M 25.051,18.801 C 24.348,19.321 5.184,38.586 5,38.957 c -0.344,0.692 -0.07,1.219 0.734,1.422 0.352,0.09 6.582,0.121 22.637,0.121 24.539,0 22.762,-0.05 23.012,0.664 0.203,0.594 -0.028,0.852 -6.942,7.793 -7.019,7.051 -7.402,7.407 -7.894,7.407 -1.012,0 -1.008,0.023 -1.074,-5.774 -0.059,-5.586 -0.028,-5.359 -0.934,-6.269 -0.762,-0.762 -1.125,-0.852 -3.383,-0.852 -2.171083,-0.12256 -4.269943,0.121518 -4.261,2.375 l 0.003,38.012 c 0.125,1.066 0.704,1.441 1.54,1.008 0.425,-0.223 60.128,-59.891 60.335,-60.301 0.352,-0.692 -0.043,-1.367 -0.867,-1.488 -0.258,-0.036 -3.871,-0.055 -8.023,-0.036 0,0 -5.494821,-0.184961 -8.418,0.34 -2.031,0.719 -2.324,0.934 -5.508,4.074 -1.272505,1.308542 -2.411749,2.627928 -4.047,3.426 -2.109,1.02 -0.508,0.934 -17.586,0.934 l -15.054,0 c -0.937584,-0.405242 -1.810457,-1.148287 -2.184,-1.949 -0.172,-0.379 -0.195,-0.95 -0.246,-5.622 l -0.051,-5.199 c -0.58023,-0.654209 -1.203086,-0.457174 -1.738,-0.242 z" /><path
         style="fill:#000000;fill-opacity:1;fill-rule:nonzero;stroke:none"
         d="m 21.783279,9.6362432 0,-9.6046912 1.614063,0 0.05781,3.726568 1.535937,0.0625 2.742188,-3.789064 2.145312,-0.0016 -2.801562,3.993752 0.45625,0.229688 c 1.125,0.563 1.53125,1.261811 1.53125,2.6328112 0.004,2.27 -0.866,2.75 -4.975,2.75 l -2.30625,0 z m 1.617187,-1.6156256 1.379688,0 c 1.219,0 1.438063,-0.031187 1.864063,-0.2421872 0.976,-0.493 0.944625,-1.6923752 -0.05938,-2.1843754 -0.34,-0.168 -0.723376,-0.219687 -1.809376,-0.254687 l -1.375,-0.04687 0,2.7281248 z"
         id="path4177" /><path
         style="fill:#000000;fill-opacity:1;fill-rule:nonzero;stroke:none"
         d="m 83.853342,9.5815552 -3.703125,-9.5312512 1.604687,0.0016 1.095313,2.568752 3.810937,0 1.090626,-2.60156 1.737499,0.02344 -3.721875,9.5390592 -1.914062,0 z m 0.898438,-2.1 c 0.059,0 1.289062,-3.1291232 1.289062,-3.2781232 l -2.5625,0 c 0,0 1.226438,3.2781232 1.273438,3.2781232 z"
         id="path4181" /></g></g></svg>