<?xml version="1.0" encoding="UTF-8"?>
<svg width="125.52" height="106.3" version="1.1" viewBox="0 0 125.52 106.3" xml:space="preserve" xmlns="http://www.w3.org/2000/svg"><metadata xmlns:dc="http://purl.org/dc/elements/1.1/" xmlns:cc="http://creativecommons.org/ns#" xmlns:rdf="http://www.w3.org/1999/02/22-rdf-syntax-ns#" id="metadata8"><rdf:RDF><cc:Work rdf:about=""><dc:format>image/svg+xml</dc:format><dc:type rdf:resource="http://purl.org/dc/dcmitype/StillImage" /><dc:title></dc:title><cc:license rdf:resource="http://www.eclipse.org/legal/epl-2.0"/></cc:Work></rdf:RDF></metadata><g transform="matrix(1.25 0 0 -1.25 0 106.3)"><g><g><path transform="matrix(.8 0 0 -.8 0 85.039)" d="m45.742 94.098c-2.9838-0.015-5.7029 1.8688-6.2441 4.7988-0.61625 3.35 0.84016 6.0259 3.8477 7.0859 1.1125 0.39 3.7977 0.33524 4.9102-0.10351 4.6838-1.8562 4.996-8.9898 0.47852-11.104-0.97625-0.45875-2.0009-0.67274-2.9922-0.67774zm-0.20898 2.0449c1.5088-0.015 3.046 0.6693 3.7598 2.0605 1.0588 2.085 0.2875 4.7565-1.6562 5.709-3.6475 1.7812-7.3294-1.8521-5.7031-5.6309 0.605-1.4062 2.0909-2.1199 3.5996-2.1387z"/><path d="m57.926 9.645-1.86 0.0043-2.664-7.1843-2.234 7.1506-1.609 0.025352-2.786-7.047-2.156 7-1.769-0.012 3.136-9.55h1.6608l2.6092 7.0674 2.332-7.047 1.633-0.028352z"/><path transform="matrix(.8 0 0 -.8 0 85.039)" d="m14.262 94.254v12.006h2.0176l0.072265-4.6582 1.9199-0.07812 3.4277 4.7363 2.6816 0.00195-3.502-4.9922 0.57031-0.28711c1.4062-0.70375 1.9141-1.5773 1.9141-3.291 5e-3 -2.8375-1.0825-3.4375-6.2188-3.4375h-2.8828zm2.0215 2.0195h1.7246c1.5238 0 1.7976 0.038984 2.3301 0.30273 1.22 0.61625 1.1808 2.1155-0.074219 2.7305-0.425 0.21-0.90422 0.27461-2.2617 0.31836l-1.7188 0.058594v-3.4102z"/><path d="m59.863 9.637v-9.605h1.727v4.21h5.07v-4.21h1.731v9.605h-1.731v-3.883h-5.07v3.883z"/><path d="m71.52 9.637v-9.605h6.687v1.621h-4.961v2.589h4.641v1.512h-4.641v2.266h4.961v1.617z"/><path transform="matrix(.8 0 0 -.8 0 85.039)" d="m114.49 94.254v12.045l2.8652-0.08399c5.625-0.16625 7.5883-1.4438 8.082-5.2676 0.605-4.6963-1.8659-6.6795-8.3496-6.6895l-2.5977-0.003906zm2.1562 2.0195h1.75c3.3738 0 4.9012 1.1964 4.9199 3.8477 0.015 2.1738-1.0528 3.5222-3.1328 3.9609-1.2372 0.1785-2.2835 0.15039-3.5371 0.15039v-7.959z"/><path transform="matrix(.8 0 0 -.8 0 85.039)" d="m4.6484 94.322-4.6289 11.914 2.0059-0.00195 1.3691-3.2109h4.7637l1.3633 3.252 2.1719-0.0293-4.6523-11.924h-2.3926zm1.123 2.625c0.07375 0 1.6113 3.9114 1.6113 4.0977h-3.2031s1.533-4.0977 1.5918-4.0977z"/></g><path d="m25.051 18.801c-0.703 0.52-19.867 19.785-20.051 20.156-0.344 0.692-0.07 1.219 0.734 1.422 0.352 0.09 6.582 0.121 22.637 0.121 24.539 0 22.762-0.05 23.012 0.664 0.203 0.594-0.028 0.852-6.942 7.793-7.019 7.051-7.402 7.407-7.894 7.407-1.012 0-1.008 0.023-1.074-5.774-0.059-5.586-0.028-5.359-0.934-6.269-0.762-0.762-1.125-0.852-3.383-0.852-2.1711-0.12256-4.2699 0.12152-4.261 2.375l3e-3 38.012c0.125 1.066 0.704 1.441 1.54 1.008 0.425-0.223 60.128-59.891 60.335-60.301 0.352-0.692-0.043-1.367-0.867-1.488-0.258-0.036-3.871-0.055-8.023-0.036 0 0-5.4948-0.18496-8.418 0.34-2.031 0.719-2.324 0.934-5.508 4.074-1.2725 1.3085-2.4117 2.6279-4.047 3.426-2.109 1.02-0.508 0.934-17.586 0.934h-15.054c-0.93758-0.40524-1.8105-1.1483-2.184-1.949-0.172-0.379-0.195-0.95-0.246-5.622l-0.051-5.199c-0.58023-0.65421-1.2031-0.45717-1.738-0.242z" fill="#004875"/><path d="m21.783 9.6362v-9.6047h1.6141l0.05781 3.7266 1.5359 0.0625 2.7422-3.7891 2.1453-0.0016-2.8016 3.9938 0.45625 0.22969c1.125 0.563 1.5312 1.2618 1.5312 2.6328 4e-3 2.27-0.866 2.75-4.975 2.75h-2.3062zm1.6172-1.6156h1.3797c1.219 0 1.4381-0.031187 1.8641-0.24219 0.976-0.493 0.94462-1.6924-0.05938-2.1844-0.34-0.168-0.72338-0.21969-1.8094-0.25469l-1.375-0.04687v2.7281z"/><path d="m83.853 9.5816-3.7031-9.5313 1.6047 0.0016 1.0953 2.5688h3.8109l1.0906-2.6016 1.7375 0.02344-3.7219 9.5391h-1.9141zm0.89844-2.1c0.059 0 1.2891-3.1291 1.2891-3.2781h-2.5625s1.2264 3.2781 1.2734 3.2781z"/></g></g></svg>
